<?xml version="1.0" encoding="UTF-8"?>
<svg version="1.1" xmlns="http://www.w3.org/2000/svg" width="500" height="500">
<path d="M0 0 C0 0.66 0 1.32 0 2 C0.57234375 2.2475 1.1446875 2.495 1.734375 2.75 C4.35010611 4.19316199 6.14773456 5.88216222 8.25 8 C8.95640625 8.70125 9.6628125 9.4025 10.390625 10.125 C12 12 12 12 12 14 C12.66 14 13.32 14 14 14 C18 19.41176471 18 19.41176471 18 22 C18.66 22 19.32 22 20 22 C24.55506243 29.83840693 28.5045225 37.63123082 31.375 46.25 C31.61299316 46.95688965 31.85098633 47.6637793 32.09619141 48.39208984 C35.63774041 59.49677379 36.40755354 70.40567813 36.375 82 C36.37445618 82.72888428 36.37391235 83.45776855 36.37335205 84.20874023 C36.33335242 95.88351185 35.44254087 106.79846076 32 118 C31.79632813 118.70398926 31.59265625 119.40797852 31.3828125 120.13330078 C26.93807159 135.24747764 19.08776932 148.51652306 10.5 161.625 C10.07879883 162.27098145 9.65759766 162.91696289 9.22363281 163.58251953 C8.20479289 165.0940908 7.10936489 166.55355885 6 168 C5.34 168 4.68 168 4 168 C3.67708984 169.03060547 3.67708984 169.03060547 3.34765625 170.08203125 C1.60494188 173.85538671 -0.82519477 176.5926978 -3.5625 179.6875 C-7.14919703 183.58605233 -7.14919703 183.58605233 -10 188 C-10.66 188 -11.32 188 -12 188 C-12.2475 188.55171875 -12.495 189.1034375 -12.75 189.671875 C-14.24234474 192.45136707 -16.03672523 194.7814707 -18 197.25 C-18.70125 198.14203125 -19.4025 199.0340625 -20.125 199.953125 C-21.053125 200.96632813 -21.053125 200.96632813 -22 202 C-22.66 202 -23.32 202 -24 202 C-24.22429687 202.52851563 -24.44859375 203.05703125 -24.6796875 203.6015625 C-26.45707547 206.8303087 -28.79476903 209.53876251 -31.125 212.375 C-45.54630275 230.37257714 -50.9334058 248.28480775 -52.12304688 271.05078125 C-52.68119496 280.01132081 -53.68039248 287.85311357 -59.5 295 C-60.0878125 295.7425 -60.675625 296.485 -61.28125 297.25 C-63 299 -63 299 -66 300 C-66 300.66 -66 301.32 -66 302 C-76.5273515 308.15385621 -85.04943112 311.77210868 -97.375 308.875 C-106.35203283 306.22745259 -113.47709602 301.30344682 -118 293 C-122.77343556 282.59063896 -122.61915314 272.17890096 -122 261 C-121.96132812 260.27184082 -121.92265625 259.54368164 -121.8828125 258.79345703 C-120.17455258 231.35453212 -111.48293345 205.61037113 -96 183 C-95.36892334 182.07380859 -95.36892334 182.07380859 -94.72509766 181.12890625 C-86.85750843 169.6653107 -78.01307453 159.07879437 -68.89697266 148.59375 C-66.16026444 145.49784341 -66.16026444 145.49784341 -64 142 C-63.34 142 -62.68 142 -62 142 C-61.77570313 141.4740625 -61.55140625 140.948125 -61.3203125 140.40625 C-59.53217483 137.14739555 -57.20794005 134.37622746 -54.875 131.5 C-42.82900431 116.39347754 -31.20635598 99.34970675 -33 79 C-34.68333226 68.39633223 -37.2126271 60.52776272 -46 54 C-46 53.34 -46 52.68 -46 52 C-47.1446875 51.62875 -47.1446875 51.62875 -48.3125 51.25 C-52.34631837 49.88260394 -56.32972514 48.40088346 -60.31640625 46.90234375 C-73.07738799 42.6115333 -89.82105586 43.58237109 -102 49 C-105.82478301 51.11155767 -109.45398535 53.48372264 -113.0390625 55.9765625 C-115.33403676 57.54489583 -117.47959809 58.85659816 -120 60 C-120 60.66 -120 61.32 -120 62 C-120.66 62 -121.32 62 -122 62 C-122.39445312 62.84498047 -122.39445312 62.84498047 -122.796875 63.70703125 C-124.1019812 66.19436027 -125.64398309 68.38337214 -127.25 70.6875 C-134.17769961 81.56153993 -137.32348108 93.91973322 -139.61987305 106.4921875 C-140.81019373 112.86620709 -143.003326 118.23716539 -146 124 C-146.66 124 -147.32 124 -148 124 C-148 124.66 -148 125.32 -148 126 C-148.66 126 -149.32 126 -150 126 C-150 126.66 -150 127.32 -150 128 C-150.66 128 -151.32 128 -152 128 C-152 128.66 -152 129.32 -152 130 C-153.70192385 130.9902653 -155.41188011 131.96673206 -157.125 132.9375 C-158.07632813 133.48277344 -159.02765625 134.02804688 -160.0078125 134.58984375 C-168.17770557 138.44014584 -178.58543256 138.01366802 -187 135 C-192.65638261 132.61947399 -198.56507839 130.00650242 -201.3125 124.25 C-201.539375 123.5075 -201.76625 122.765 -202 122 C-202.66 122 -203.32 122 -204 122 C-213.24888324 102.55583617 -207.1029429 80.29078943 -200.24609375 60.87109375 C-195.58746444 48.38851001 -189.3832826 37.0749239 -182 26 C-181.34 26 -180.68 26 -180 26 C-179.690625 24.9790625 -179.690625 24.9790625 -179.375 23.9375 C-177.57104973 20.08360625 -175.0989655 16.92212236 -172 14 C-171.34 14 -170.68 14 -170 14 C-170 13.34 -170 12.68 -170 12 C-127.26206194 -33.37763423 -48.80107744 -37.81444744 0 0 Z " fill="#EDEEED" transform="translate(336,60)"/>
<path d="M0 0 C1.03125 0.721875 2.0625 1.44375 3.125 2.1875 C8.27699565 6.63374282 12.11200345 13.26519474 13 20 C13.72405797 32.18366774 13.11319501 42.2826691 5.03125 51.95703125 C-3.33501424 60.3715624 -12.37021651 62.88937186 -24 63 C-30.95180347 62.23815852 -38.19209074 59.8719395 -44 56 C-44 55.34 -44 54.68 -44 54 C-44.66 54 -45.32 54 -46 54 C-46 53.34 -46 52.68 -46 52 C-46.66 52 -47.32 52 -48 52 C-49.4375 50.0234375 -49.4375 50.0234375 -51 47.375 C-51.515625 46.51648438 -52.03125 45.65796875 -52.5625 44.7734375 C-56.93620313 36.33504287 -57.41972167 27.01552171 -55.2421875 17.7890625 C-53.48582793 12.74125745 -51.37364076 8.1608236 -48 4 C-47.34 4 -46.68 4 -46 4 C-46 3.34 -46 2.68 -46 2 C-33.46317161 -10.13241457 -13.55734583 -9.84418742 0 0 Z " fill="#EBEBEB" transform="translate(270,402)"/>
<path d="M0 0 C3.39859703 1.46966358 5.64963709 3.38037514 8.25 6 C8.95640625 6.70125 9.6628125 7.4025 10.390625 8.125 C12 10 12 10 12 12 C12.66 12 13.32 12 14 12 C18 17.41176471 18 17.41176471 18 20 C18.66 20 19.32 20 20 20 C24.55506243 27.83840693 28.5045225 35.63123082 31.375 44.25 C31.61299316 44.95688965 31.85098633 45.6637793 32.09619141 46.39208984 C35.63774041 57.49677379 36.40755354 68.40567813 36.375 80 C36.37445618 80.72888428 36.37391235 81.45776855 36.37335205 82.20874023 C36.33335242 93.88351185 35.44254087 104.79846076 32 116 C31.69449219 117.05598389 31.69449219 117.05598389 31.3828125 118.13330078 C26.93807159 133.24747764 19.08776932 146.51652306 10.5 159.625 C10.07879883 160.27098145 9.65759766 160.91696289 9.22363281 161.58251953 C8.20479289 163.0940908 7.10936489 164.55355885 6 166 C5.34 166 4.68 166 4 166 C3.67708984 167.03060547 3.67708984 167.03060547 3.34765625 168.08203125 C1.60494188 171.85538671 -0.82519477 174.5926978 -3.5625 177.6875 C-7.14919703 181.58605233 -7.14919703 181.58605233 -10 186 C-10.66 186 -11.32 186 -12 186 C-12.2475 186.55171875 -12.495 187.1034375 -12.75 187.671875 C-14.24234474 190.45136707 -16.03672523 192.7814707 -18 195.25 C-18.70125 196.14203125 -19.4025 197.0340625 -20.125 197.953125 C-20.74375 198.62859375 -21.3625 199.3040625 -22 200 C-22.66 200 -23.32 200 -24 200 C-24.22429687 200.52851563 -24.44859375 201.05703125 -24.6796875 201.6015625 C-26.45707547 204.8303087 -28.79476903 207.53876251 -31.125 210.375 C-45.54630275 228.37257714 -50.9334058 246.28480775 -52.12304688 269.05078125 C-52.68119496 278.01132081 -53.68039248 285.85311357 -59.5 293 C-60.0878125 293.7425 -60.675625 294.485 -61.28125 295.25 C-63 297 -63 297 -66 298 C-66 298.66 -66 299.32 -66 300 C-76.71869296 306.26570655 -85.24569314 309.80946886 -97.75 306.6875 C-101.37904137 305.72955472 -103.56267179 304.90042058 -106 302 C-105.04480469 301.97421875 -104.08960938 301.9484375 -103.10546875 301.921875 C-90.59700453 301.37314875 -80.21968422 299.15023274 -71 290 C-64.11295103 281.69076884 -61.81641965 274.94508001 -61.625 264.3125 C-61.08911744 248.557829 -58.07025381 234.14050763 -51 220 C-50.34 220 -49.68 220 -49 220 C-48.7215625 218.7934375 -48.7215625 218.7934375 -48.4375 217.5625 C-46.79947599 213.50304918 -44.62277464 210.69820305 -41.87890625 207.32421875 C-39.55146625 204.44516095 -37.40745389 201.4493804 -35.26171875 198.43359375 C-34.84535156 197.96050781 -34.42898438 197.48742187 -34 197 C-33.34 197 -32.68 197 -32 197 C-31.690625 196.38125 -31.38125 195.7625 -31.0625 195.125 C-30.375 193.75 -29.6875 192.375 -29 191 C-28.34 191 -27.68 191 -27 191 C-26.73123047 190.41283203 -26.46246094 189.82566406 -26.18554688 189.22070312 C-24.99471121 186.99009333 -23.71437989 185.34744752 -22.03125 183.46875 C-21.46019531 182.82292969 -20.88914062 182.17710937 -20.30078125 181.51171875 C-19.10026042 180.17057292 -17.89973958 178.82942708 -16.69921875 177.48828125 C-16.12816406 176.84246094 -15.55710937 176.19664062 -14.96875 175.53125 C-14.44732422 174.94923828 -13.92589844 174.36722656 -13.38867188 173.76757812 C-11.94839812 171.93431828 -10.9681348 170.11503789 -10 168 C-9.34 168 -8.68 168 -8 168 C-7.731875 167.43796875 -7.46375 166.8759375 -7.1875 166.296875 C-5.9196021 163.84449354 -4.51027658 161.56072317 -3 159.25 C-2.2265625 158.05117188 -2.2265625 158.05117188 -1.4375 156.828125 C-0.963125 156.22484375 -0.48875 155.6215625 0 155 C0.66 155 1.32 155 2 155 C2.26683594 154.28199219 2.53367187 153.56398437 2.80859375 152.82421875 C4.01458136 149.965435 5.43698539 147.45246352 7.0625 144.8125 C9.13105765 141.4614921 9.13105765 141.4614921 11 138 C11.66 138 12.32 138 13 138 C13.495 135.03 13.495 135.03 14 132 C14.66 132 15.32 132 16 132 C16.09539062 131.18015625 16.19078125 130.3603125 16.2890625 129.515625 C16.98814928 126.05860245 18.05257523 123.21510489 19.42553711 119.9909668 C30.67506476 93.43930459 30.74028543 61.24126434 20.25878906 34.4453125 C19.52005874 32.62438313 18.76083606 30.81180428 18 29 C17.67128906 28.20980469 17.34257812 27.41960937 17.00390625 26.60546875 C13.76542969 19.53839323 8.72291329 13.33018172 3.828125 7.34375 C1.97373565 4.96632776 0.97312511 2.83828158 0 0 Z " fill="#BEBFBF" transform="translate(336,62)"/>
<path d="M0 0 C1.2890625 -0.01611328 2.578125 -0.03222656 3.90625 -0.04882812 C10.81786657 -0.05237618 16.4135758 0.14513604 22.625 3.3125 C22.955 3.9725 23.285 4.6325 23.625 5.3125 C22.94099121 5.29155273 22.25698242 5.27060547 21.55224609 5.24902344 C2.90881731 4.7537045 -10.81268657 5.43282675 -26.4140625 16.2890625 C-28.70903676 17.85739583 -30.85459809 19.16909816 -33.375 20.3125 C-33.375 20.9725 -33.375 21.6325 -33.375 22.3125 C-34.035 22.3125 -34.695 22.3125 -35.375 22.3125 C-35.63796875 22.87582031 -35.9009375 23.43914062 -36.171875 24.01953125 C-37.4769812 26.50686027 -39.01898309 28.69587214 -40.625 31 C-47.55269961 41.87403993 -50.69848108 54.23223322 -52.99487305 66.8046875 C-54.18519373 73.17870709 -56.378326 78.54966539 -59.375 84.3125 C-60.035 84.3125 -60.695 84.3125 -61.375 84.3125 C-61.375 84.9725 -61.375 85.6325 -61.375 86.3125 C-62.035 86.3125 -62.695 86.3125 -63.375 86.3125 C-63.375 86.9725 -63.375 87.6325 -63.375 88.3125 C-64.035 88.3125 -64.695 88.3125 -65.375 88.3125 C-65.375 88.9725 -65.375 89.6325 -65.375 90.3125 C-67.07692385 91.3027653 -68.78688011 92.27923206 -70.5 93.25 C-71.45132813 93.79527344 -72.40265625 94.34054688 -73.3828125 94.90234375 C-81.55362516 98.75307922 -91.95947701 98.32525723 -100.375 95.3125 C-107.75961538 92.23557692 -107.75961538 92.23557692 -110.375 88.3125 C-108.375 89.3125 -106.375 90.3125 -104.375 91.3125 C-91.62820403 92.45351754 -81.93765717 90.45049598 -71.875 82.0625 C-64.82680046 75.81309641 -62.90310863 67.44923549 -61.375 58.5 C-57.52335745 37.91435294 -49.92821126 20.62934474 -32.375 8.3125 C-21.36464899 1.94523166 -12.63799391 -0.03140655 0 0 Z " fill="#BABABA" transform="translate(249.375,99.6875)"/>
<path d="M0 0 C4.56088484 0.53657469 7.32695872 2.30143906 11 5 C11.99 5.70125 12.98 6.4025 14 7.125 C19.23034702 11.56872491 23.10375175 18.20261155 24 25 C24.72405797 37.18366774 24.11319501 47.2826691 16.03125 56.95703125 C7.67171941 65.3647899 -1.37515692 67.90358542 -13 68 C-17.92716244 67.41652024 -22.47573473 66.04321657 -27 64 C-24.08291076 62.01637931 -22.87619096 62.0123809 -19.25 62.375 C-18.1775 62.58125 -17.105 62.7875 -16 63 C-16.99 63.99 -16.99 63.99 -18 65 C-16.35 65 -14.7 65 -13 65 C-13.33 64.01 -13.66 63.02 -14 62 C-12.2984375 61.6596875 -12.2984375 61.6596875 -10.5625 61.3125 C0.34270315 58.51876421 7.23935062 51.99691563 12.9375 42.5 C16.45559756 34.95123438 16.2605491 25.77249754 14.16015625 17.8203125 C12.81232434 14.31086339 11.67075558 11.67075558 9 9 C8.87753906 8.34515625 8.75507813 7.6903125 8.62890625 7.015625 C8.17915161 4.84255329 8.17915161 4.84255329 6.15234375 3.734375 C5.42144531 3.40953125 4.69054687 3.0846875 3.9375 2.75 C3.20402344 2.41484375 2.47054688 2.0796875 1.71484375 1.734375 C1.14894531 1.49203125 0.58304687 1.2496875 0 1 C0 0.67 0 0.34 0 0 Z " fill="#BEBEBE" transform="translate(259,397)"/>
<path d="M0 0 C3.39859703 1.46966358 5.64963709 3.38037514 8.25 6 C8.95640625 6.70125 9.6628125 7.4025 10.390625 8.125 C12 10 12 10 12 12 C12.66 12 13.32 12 14 12 C18 17.41176471 18 17.41176471 18 20 C18.66 20 19.32 20 20 20 C24.62720325 27.96254772 28.58400183 35.86980995 31.5 44.625 C31.75475098 45.38216309 32.00950195 46.13932617 32.27197266 46.91943359 C33.48456054 50.71694955 34.31911816 53.96315528 34 58 C33.01 57.505 33.01 57.505 32 57 C31.4202119 54.89536921 30.93448315 52.76435724 30.5 50.625 C29.70819498 46.74343407 29.21070248 44.31605373 27 41 C27.309375 42.918125 27.309375 42.918125 27.625 44.875 C27.9765625 47.0546875 27.9765625 47.0546875 28 49 C27.34 49.66 26.68 50.32 26 51 C25.608125 49.783125 25.21625 48.56625 24.8125 47.3125 C19.74932525 32.17074156 13.97022396 19.74775593 3.828125 7.34375 C1.97373565 4.96632776 0.97312511 2.83828158 0 0 Z " fill="#BCBCBB" transform="translate(336,62)"/>
<path d="M0 0 C4.56088484 0.53657469 7.32695872 2.30143906 11 5 C11.99 5.70125 12.98 6.4025 14 7.125 C18.00699801 10.53679406 20.98097199 15.16847383 23 20 C22.66015625 22.30859375 22.66015625 22.30859375 22 24 C20.515 20.535 20.515 20.535 19 17 C18.34 18.32 17.68 19.64 17 21 C16.34 21 15.68 21 15 21 C14.73445313 20.30132812 14.46890625 19.60265625 14.1953125 18.8828125 C13.84210938 17.97273438 13.48890625 17.06265625 13.125 16.125 C12.77695312 15.22007812 12.42890625 14.31515625 12.0703125 13.3828125 C11.11469105 10.87782993 11.11469105 10.87782993 9 9 C8.81630859 8.01773437 8.81630859 8.01773437 8.62890625 7.015625 C8.17915161 4.84255329 8.17915161 4.84255329 6.15234375 3.734375 C5.42144531 3.40953125 4.69054687 3.0846875 3.9375 2.75 C3.20402344 2.41484375 2.47054688 2.0796875 1.71484375 1.734375 C1.14894531 1.49203125 0.58304687 1.2496875 0 1 C0 0.67 0 0.34 0 0 Z " fill="#838383" transform="translate(259,397)"/>
<path d="M0 0 C-0.33 0.99 -0.66 1.98 -1 3 C-3.0625 3.6875 -3.0625 3.6875 -5 4 C-5 5.65 -5 7.3 -5 9 C-5.99 9.495 -5.99 9.495 -7 10 C-8.13350534 12.01669827 -8.13350534 12.01669827 -9 14 C-9.66 14 -10.32 14 -11 14 C-11.33 12.02 -11.66 10.04 -12 8 C-14.475 9.485 -14.475 9.485 -17 11 C-14.59781573 5.83131914 -11.31451186 1.37768563 -6.375 -1.5625 C-3.51483011 -2.0893734 -2.38434541 -1.5895636 0 0 Z " fill="#CDCDCD" transform="translate(332,235)"/>
<path d="M0 0 C2 1 4 2 6 3 C8.37123246 3.23029956 10.74741943 3.41119942 13.125 3.5625 C14.40632812 3.64628906 15.68765625 3.73007813 17.0078125 3.81640625 C18.48894531 3.90728516 18.48894531 3.90728516 20 4 C20 4.66 20 5.32 20 6 C24.95 6 29.9 6 35 6 C34.67 6.66 34.34 7.32 34 8 C23.34385874 10.73234391 13.325985 8.85163007 3.6640625 4.09765625 C2 3 2 3 0 0 Z " fill="#7B7B7B" transform="translate(139,188)"/>
<path d="M0 0 C1.485 0.99 1.485 0.99 3 2 C3.66 1.34 4.32 0.68 5 0 C12.41058394 17.22536496 12.41058394 17.22536496 12 24 C11.34 23.67 10.68 23.34 10 23 C9.4202119 20.89536921 8.93448315 18.76435724 8.5 16.625 C7.70819498 12.74343407 7.21070248 10.31605373 5 7 C5.309375 8.918125 5.309375 8.918125 5.625 10.875 C5.9765625 13.0546875 5.9765625 13.0546875 6 15 C5.34 15.66 4.68 16.32 4 17 C2.19695845 11.69905784 0.49276376 6.39691512 -1 1 C-0.67 0.67 -0.34 0.34 0 0 Z " fill="#969696" transform="translate(358,96)"/>
<path d="M0 0 C5.94 0 11.88 0 18 0 C17.67 0.66 17.34 1.32 17 2 C15.35 2.33 13.7 2.66 12 3 C16.29 3.33 20.58 3.66 25 4 C18.14993598 7.42503201 12.55728599 5.82447912 5.453125 3.94921875 C3 3 3 3 0 0 Z " fill="#808080" transform="translate(230,364)"/>
<path d="M0 0 C3.81312629 1.22564773 5.39010518 3.58863306 7.25 7.046875 C8.40498408 10.05464603 8.25867923 12.83117937 8 16 C2.92621789 12.50083992 0.5348823 9.01162233 -1 3 C-0.67 2.01 -0.34 1.02 0 0 Z " fill="#CDCDCD" transform="translate(354,84)"/>
<path d="M0 0 C-0.66 0.66 -1.32 1.32 -2 2 C-0.35 2 1.3 2 3 2 C2.67 1.01 2.34 0.02 2 -1 C5.37462715 -0.45276317 7.08235 0.0549 10 2 C12.05709596 2.24055468 12.05709596 2.24055468 14.1875 2.125 C15.445625 2.08375 16.70375 2.0425 18 2 C14.24994818 5.75005182 8.08017485 4.95917196 3 5 C-1.92680452 4.41911038 -6.47645631 3.0428907 -11 1 C-7.2297564 -1.56376565 -4.32597804 -0.83191885 0 0 Z " fill="#898989" transform="translate(243,460)"/>
<path d="M0 0 C0 3.89807054 -1.41213822 6.4578468 -3 10 C-3.433125 11.3303125 -3.433125 11.3303125 -3.875 12.6875 C-5.35372416 15.72709967 -7.23211561 17.10973749 -10 19 C-10.99 19.33 -11.98 19.66 -13 20 C-11.43062793 15.30085164 -8.83473621 11.70040411 -5.9375 7.75 C-5.47794922 7.11320313 -5.01839844 6.47640625 -4.54492188 5.8203125 C-1.19148166 1.19148166 -1.19148166 1.19148166 0 0 Z " fill="#8D8D8D" transform="translate(251,228)"/>
<path d="M0 0 C0.042721 1.66611905 0.04063832 3.33382885 0 5 C-1.79904778 6.79904778 -4.45063451 6.17296543 -6.875 6.1875 C-8.47988281 6.20876953 -8.47988281 6.20876953 -10.1171875 6.23046875 C-13 6 -13 6 -16 4 C-13.36 3.67 -10.72 3.34 -8 3 C-8.66 2.34 -9.32 1.68 -10 1 C-3.375 -1.125 -3.375 -1.125 0 0 Z " fill="#CECECE" transform="translate(255,362)"/>
<path d="M0 0 C0 3.34749122 -0.35697187 3.83461807 -2.3359375 6.35546875 C-2.82320313 6.97744141 -3.31046875 7.59941406 -3.8125 8.24023438 C-4.328125 8.88283203 -4.84375 9.52542969 -5.375 10.1875 C-6.13683594 11.16879883 -6.13683594 11.16879883 -6.9140625 12.16992188 C-8.22385909 13.82267836 -9.60703557 15.41670559 -11 17 C-11.66 17 -12.32 17 -13 17 C-13 15.35 -13 13.7 -13 12 C-12.01 12.495 -12.01 12.495 -11 13 C-11.04125 12.21625 -11.0825 11.4325 -11.125 10.625 C-11 8 -11 8 -9 6 C-8.01 6 -7.02 6 -6 6 C-4.98133771 4.34467377 -3.98189187 2.67739862 -3 1 C-2.01 0.67 -1.02 0.34 0 0 Z " fill="#969696" transform="translate(337,231)"/>
<path d="M0 0 C0 1.98 0 3.96 0 6 C-3.96 5.67 -7.92 5.34 -12 5 C-11 2 -11 2 -9.2578125 1.015625 C-8.55398437 0.76296875 -7.85015625 0.5103125 -7.125 0.25 C-6.07699219 -0.14445313 -6.07699219 -0.14445313 -5.0078125 -0.546875 C-3 -1 -3 -1 0 0 Z " fill="#CBCBCB" transform="translate(171,189)"/>
<path d="M0 0 C0.99 0 1.98 0 3 0 C1.92851419 2.74279862 0.80223902 5.44124386 -0.40234375 8.12890625 C-3.76249517 15.64435942 -6.30943781 22.90309689 -8 31 C-8.33 31 -8.66 31 -9 31 C-8.96267528 23.06849665 -6.53743783 16.6829525 -3.47265625 9.515625 C-2.1572164 6.37531766 -1.02969153 3.24327961 0 0 Z " fill="#555655" transform="translate(293,283)"/>
<path d="M0 0 C1.44010481 0.25662245 2.8770687 0.53090821 4.3125 0.8125 C5.11300781 0.96332031 5.91351563 1.11414063 6.73828125 1.26953125 C9 2 9 2 12 5 C3.75 4.67 -4.5 4.34 -13 4 C-13 3.67 -13 3.34 -13 3 C-8.71 3 -4.42 3 0 3 C0 2.01 0 1.02 0 0 Z " fill="#888787" transform="translate(261,100)"/>
<path d="M0 0 C1 2 1 2 0.375 5.3125 C-1.81501109 11.18571155 -5.59744011 14.06718177 -11 17 C-9.24933204 13.11390189 -6.81675994 9.72187742 -4.375 6.25 C-3.95476562 5.64800781 -3.53453125 5.04601562 -3.1015625 4.42578125 C-2.07006863 2.94886957 -1.03535421 1.47420806 0 0 Z " fill="#70706F" transform="translate(293,175)"/>
<path d="M0 0 C5.70065139 0.67066487 9.39479806 3.43595708 13.4375 7.375 C15 10 15 10 14.75 13.3125 C14.5025 14.199375 14.255 15.08625 14 16 C13.5978125 15.1028125 13.5978125 15.1028125 13.1875 14.1875 C12.12703272 11.9700287 12.12703272 11.9700287 10.4375 10.5 C9 9 9 9 8.6640625 7.046875 C8.18070335 4.84763782 8.18070335 4.84763782 6.15234375 3.734375 C5.42144531 3.40953125 4.69054687 3.0846875 3.9375 2.75 C3.20402344 2.41484375 2.47054688 2.0796875 1.71484375 1.734375 C1.14894531 1.49203125 0.58304687 1.2496875 0 1 C0 0.67 0 0.34 0 0 Z " fill="#959595" transform="translate(259,397)"/>
<path d="M0 0 C3.39859703 1.46966358 5.64963709 3.38037514 8.25 6 C8.95640625 6.70125 9.6628125 7.4025 10.390625 8.125 C12 10 12 10 12 12 C12.66 12 13.32 12 14 12 C15.625 14 15.625 14 17 16 C16.67 16.66 16.34 17.32 16 18 C11.95511328 14.85397699 9.62541481 12.41069688 7 8 C5.19505176 6.0893566 3.32894753 4.26566431 1.42578125 2.453125 C0 1 0 1 0 0 Z " fill="#4D4D49" transform="translate(336,62)"/>
<path d="M0 0 C0.6875 1.625 0.6875 1.625 1 4 C-0.4375 7.25 -0.4375 7.25 -2 10 C-2.66 10 -3.32 10 -4 10 C-4 9.34 -4 8.68 -4 8 C-4.99 7.67 -5.98 7.34 -7 7 C-5.1875 5 -5.1875 5 -3 3 C-2.01 3 -1.02 3 0 3 C0 2.01 0 1.02 0 0 Z " fill="#969696" transform="translate(281,438)"/>
<path d="M0 0 C0.33 0.99 0.66 1.98 1 3 C-0.328125 5.26171875 -0.328125 5.26171875 -2.25 7.6875 C-2.87390625 8.49574219 -3.4978125 9.30398438 -4.140625 10.13671875 C-5.06101562 11.05904297 -5.06101562 11.05904297 -6 12 C-6.99 12 -7.98 12 -9 12 C-8.54625 11.62875 -8.0925 11.2575 -7.625 10.875 C-5.76788497 8.9806071 -5.76788497 8.9806071 -5 5.875 C-4.67 4.92625 -4.34 3.9775 -4 3 C-3.01 2.67 -2.02 2.34 -1 2 C-0.67 1.34 -0.34 0.68 0 0 Z " fill="#636363" transform="translate(279,347)"/>
<path d="M0 0 C0 3.52032428 -0.70351351 4.4385343 -3 7 C-3.66 7 -4.32 7 -5 7 C-5.28875 7.639375 -5.5775 8.27875 -5.875 8.9375 C-7 11 -7 11 -9 12 C-8.505 10.6078125 -8.505 10.6078125 -8 9.1875 C-6.85032996 6.07970709 -6.85032996 6.07970709 -7 3 C-6.21625 2.87625 -5.4325 2.7525 -4.625 2.625 C-1.85942178 2.20882007 -1.85942178 2.20882007 0 0 Z " fill="#6B6B6B" transform="translate(317,255)"/>
<path d="M0 0 C1.0625 1.8125 1.0625 1.8125 2 4 C1.67 4.99 1.34 5.98 1 7 C-1.0625 7.6875 -1.0625 7.6875 -3 8 C-3 8.66 -3 9.32 -3 10 C-3.66 10 -4.32 10 -5 10 C-3.84414715 6.08788267 -2.64465038 3.1254959 0 0 Z " fill="#9A9A98" transform="translate(237,248)"/>
<path d="M0 0 C0.66 0.33 1.32 0.66 2 1 C1.67 2.65 1.34 4.3 1 6 C-2.33333333 6.66666667 -5.66666667 7.33333333 -9 8 C-6.14723863 5.06799526 -3.34920216 2.35684596 0 0 Z " fill="#838382" transform="translate(186,56)"/>
<path d="M0 0 C0.515625 0.2475 1.03125 0.495 1.5625 0.75 C0.5625 2.75 0.5625 2.75 -1.328125 3.53125 C-2.49601563 3.88703125 -2.49601563 3.88703125 -3.6875 4.25 C-7.0025544 5.29157212 -10.22996459 6.40490451 -13.4375 7.75 C-10.06114471 3.96848208 -5.37676858 -0.55146344 0 0 Z " fill="#676767" transform="translate(201.4375,48.25)"/>
<path d="M0 0 C2.7330836 2.36039038 4.00684499 4.52395748 5 8 C4.625 10.8125 4.625 10.8125 4 13 C3.67 13 3.34 13 3 13 C1.80712589 9.12315913 1 6.08378077 1 2 C0.34 1.67 -0.32 1.34 -1 1 C-0.67 0.67 -0.34 0.34 0 0 Z " fill="#CCCCCC" transform="translate(362,101)"/>
<path d="M0 0 C0 3.58912412 -0.66436554 4.10857029 -3 6.6875 C-3.556875 7.31011719 -4.11375 7.93273437 -4.6875 8.57421875 C-5.120625 9.04472656 -5.55375 9.51523438 -6 10 C-6 6.70776216 -5.49481868 4.91489643 -4 2 C-1.875 0.6875 -1.875 0.6875 0 0 Z " fill="#6C6C6C" transform="translate(337,231)"/>
<path d="M0 0 C2.32947183 2.11770166 3.88750845 4.03335588 5 7 C4.67 7.99 4.34 8.98 4 10 C3.54625 9.525625 3.0925 9.05125 2.625 8.5625 C1.06741796 6.90972192 1.06741796 6.90972192 -1 6 C-0.67 4.02 -0.34 2.04 0 0 Z " fill="#808080" transform="translate(357,86)"/>
<path d="M0 0 C0 0.99 0 1.98 0 3 C-6.625 3.25 -6.625 3.25 -10 1 C-6.59437148 0.22157062 -3.49234244 -0.09978121 0 0 Z " fill="#CDCDCD" transform="translate(248,460)"/>
<path d="M0 0 C0.66 0.33 1.32 0.66 2 1 C-2.43076923 6.78461538 -2.43076923 6.78461538 -5.3125 7.875 C-5.869375 7.91625 -6.42625 7.9575 -7 8 C-7 7.34 -7 6.68 -7 6 C-6.34 6 -5.68 6 -5 6 C-5 5.34 -5 4.68 -5 4 C-3.37373596 2.61767557 -1.7074998 1.28062485 0 0 Z " fill="#5D5D5D" transform="translate(229,400)"/>
<path d="M0 0 C0.33 0 0.66 0 1 0 C1.125 5.75 1.125 5.75 0 8 C-0.99 8 -1.98 8 -3 8 C-1.125 1.125 -1.125 1.125 0 0 Z " fill="#8B8B8A" transform="translate(231,258)"/>
<path d="M0 0 C2.97 0 5.94 0 9 0 C8.34 0.66 7.68 1.32 7 2 C7.33 2.66 7.66 3.32 8 4 C3.91927658 3.44855089 3.08669204 3.08669204 0 0 Z " fill="#696969" transform="translate(230,364)"/>
<path d="M0 0 C0.33 0 0.66 0 1 0 C1.33 2.64 1.66 5.28 2 8 C0.68 8.99 -0.64 9.98 -2 11 C-1.34 7.37 -0.68 3.74 0 0 Z " fill="#696969" transform="translate(302,152)"/>
<path d="M0 0 C0.33 1.32 0.66 2.64 1 4 C-0.98 5.32 -2.96 6.64 -5 8 C-4.34 6.35 -3.68 4.7 -3 3 C-2.34 3 -1.68 3 -1 3 C-0.67 2.01 -0.34 1.02 0 0 Z " fill="#616160" transform="translate(157,83)"/>
<path d="M0 0 C2.88575819 0.39803561 3.82189513 0.79009069 5.75 3.0625 C6.1625 3.701875 6.575 4.34125 7 5 C6.67 5.66 6.34 6.32 6 7 C3.95880212 5.38405168 1.95927063 3.7143618 0 2 C0 1.34 0 0.68 0 0 Z " fill="#848480" transform="translate(346,73)"/>
</svg>
